# xmcd CD database file
#
# Track frame offsets:
#	150
#	27580
#	50667
#	75150
#	93467
#	117237
#	144595
#	165535
#	185337
#	208642
#	227850
#	234530
#
# Disc length: 3466 seconds
#
# Revision: 0
# Processed by: cddbd v1.5.2PL0 Copyright (c) Steve Scherf et al.
# Submitted via: CDex 1.70beta2
#
DISCID=9c0d880c
DTITLE=SANSHIRO - HOME COUNTRY
DYEAR=1992
DGENRE=Jazz
TTITLE0=STOMPIN'OUT
TTITLE1=HARA2DOKI2
TTITLE2=BAY BRIDGE
TTITLE3=JUST ONCE
TTITLE4=JAM THE BASSMENT
TTITLE5=WEEKEND SUNSET
TTITLE6=WHATEVER LET YOU
TTITLE7=COOL DRIVE
TTITLE8=OUT OF MY BODY
TTITLE9=SHAKE YOUR HANDS
TTITLE10=MO'FUN
TTITLE11=HOME COUNTRY
EXTD=YEAR: 1992
EXTT0=
EXTT1=
EXTT2=
EXTT3=
EXTT4=
EXTT5=
EXTT6=
EXTT7=
EXTT8=
EXTT9=
EXTT10=
EXTT11=
PLAYORDER=
